<svg width="348" height="108" viewBox="0 0 348 108" fill="none" xmlns="http://www.w3.org/2000/svg">
<path d="M67.68 27.016C65.952 31.576 64.104 36.376 62.136 41.416C60.216 46.408 58.296 51.328 56.376 56.176C54.504 61.024 52.728 65.632 51.048 70C49.368 74.368 47.952 78.136 46.8 81.304L35.136 52.144C34.992 51.76 34.872 51.472 34.776 51.28C34.68 51.088 34.584 50.8 34.488 50.416C34.488 50.608 34.464 50.8 34.416 50.992C34.368 51.136 34.32 51.304 34.272 51.496C34.224 51.688 34.176 51.88 34.128 52.072C32.496 55.816 30.888 59.488 29.304 63.088C28.632 64.624 27.936 66.208 27.216 67.84C26.496 69.472 25.8 71.104 25.128 72.736C24.456 74.32 23.784 75.856 23.112 77.344C22.488 78.832 21.912 80.176 21.384 81.376C17.928 72.304 14.448 63.256 10.944 54.232C7.44 45.208 3.96 36.136 0.504 27.016H9.36C10.512 30.184 11.688 33.376 12.888 36.592C14.136 39.808 15.288 42.904 16.344 45.88C17.448 48.856 18.432 51.616 19.296 54.16C20.16 56.704 20.832 58.864 21.312 60.64L21.888 63.16C21.936 62.92 22.056 62.536 22.248 62.008C22.44 61.432 22.584 61.024 22.68 60.784C22.728 60.592 22.896 60.16 23.184 59.488C23.472 58.816 23.808 58.024 24.192 57.112C24.576 56.152 25.008 55.12 25.488 54.016C25.968 52.912 26.448 51.784 26.928 50.632C28.08 47.992 29.352 45.064 30.744 41.848C29.928 39.592 29.208 37.48 28.584 35.512C28.008 33.832 27.456 32.176 26.928 30.544C26.448 28.912 26.088 27.736 25.848 27.016H33.408C35.472 32.44 37.392 37.456 39.168 42.064C39.888 44.032 40.608 46 41.328 47.968C42.096 49.936 42.792 51.76 43.416 53.44C44.088 55.12 44.664 56.608 45.144 57.904C45.624 59.152 45.96 60.064 46.152 60.64C46.296 61.072 46.392 61.504 46.44 61.936C46.536 62.32 46.632 62.728 46.728 63.16C46.824 62.728 46.896 62.296 46.944 61.864C47.04 61.432 47.136 61.024 47.232 60.64C47.664 58.768 48.336 56.536 49.248 53.944C50.16 51.352 51.168 48.568 52.272 45.592C53.424 42.616 54.624 39.544 55.872 36.376C57.12 33.16 58.32 30.04 59.472 27.016H67.68ZM63.8961 64.24C63.8961 62.032 64.3041 59.968 65.1201 58.048C65.9841 56.08 67.1361 54.376 68.5761 52.936C70.0161 51.448 71.6721 50.272 73.5441 49.408C75.4641 48.544 77.5041 48.112 79.6641 48.112C81.1041 48.112 82.4241 48.304 83.6241 48.688C84.8241 49.024 85.8561 49.456 86.7201 49.984C87.5841 50.512 88.2801 51.064 88.8081 51.64C89.3361 52.216 89.6961 52.72 89.8881 53.152L90.1761 48.904H96.0801V79H89.8881V75.184C89.6481 75.568 89.2641 76.024 88.7361 76.552C88.2081 77.08 87.5121 77.584 86.6481 78.064C85.8321 78.496 84.8481 78.88 83.6961 79.216C82.5441 79.552 81.2241 79.72 79.7361 79.72C77.4321 79.72 75.2961 79.312 73.3281 78.496C71.4081 77.632 69.7521 76.504 68.3601 75.112C66.9681 73.672 65.8641 72.016 65.0481 70.144C64.2801 68.272 63.8961 66.304 63.8961 64.24ZM70.0881 63.88C70.0881 65.272 70.3281 66.568 70.8081 67.768C71.3361 68.968 72.0321 70 72.8961 70.864C73.7601 71.728 74.7921 72.424 75.9921 72.952C77.1921 73.432 78.5121 73.672 79.9521 73.672C81.3921 73.672 82.7121 73.432 83.9121 72.952C85.1601 72.424 86.2161 71.728 87.0801 70.864C87.9921 69.952 88.6881 68.92 89.1681 67.768C89.6481 66.568 89.8881 65.272 89.8881 63.88C89.8881 62.488 89.6481 61.216 89.1681 60.064C88.6881 58.864 87.9921 57.832 87.0801 56.968C86.2161 56.104 85.1601 55.432 83.9121 54.952C82.7121 54.424 81.3921 54.16 79.9521 54.16C78.5121 54.16 77.1921 54.424 75.9921 54.952C74.7921 55.432 73.7601 56.104 72.8961 56.968C72.0321 57.832 71.3361 58.864 70.8081 60.064C70.3281 61.216 70.0881 62.488 70.0881 63.88ZM104.726 48.904H110.126C110.222 50.392 110.294 51.76 110.342 53.008C110.438 54.208 110.534 55.408 110.63 56.608C111.734 54.016 113.294 51.952 115.31 50.416C117.374 48.88 119.894 48.112 122.87 48.112C125.894 48.112 128.318 48.952 130.142 50.632C131.966 52.312 132.926 54.472 133.022 57.112V79H126.83V59.92C126.734 58.384 126.206 57.088 125.246 56.032C124.286 54.928 122.774 54.328 120.71 54.232C119.27 54.232 117.95 54.496 116.75 55.024C115.55 55.504 114.518 56.176 113.654 57.04C112.79 57.904 112.094 58.936 111.566 60.136C111.086 61.336 110.846 62.656 110.846 64.096V79H104.726V48.904ZM139.343 63.952C139.343 61.6 139.727 59.464 140.495 57.544C141.311 55.576 142.415 53.896 143.807 52.504C145.199 51.112 146.831 50.032 148.703 49.264C150.623 48.496 152.687 48.112 154.895 48.112C156.383 48.112 157.703 48.304 158.855 48.688C160.055 49.024 161.063 49.456 161.879 49.984C162.743 50.464 163.463 51.016 164.039 51.64C164.615 52.264 165.047 52.816 165.335 53.296V23.056H171.527V79H165.335V76.768C165.335 76.48 165.359 76.168 165.407 75.832C165.455 75.448 165.479 75.136 165.479 74.896C164.999 75.472 164.423 76.048 163.751 76.624C163.127 77.152 162.383 77.656 161.519 78.136C160.655 78.616 159.647 79 158.495 79.288C157.391 79.576 156.119 79.72 154.679 79.72C152.279 79.72 150.119 79.312 148.199 78.496C146.327 77.632 144.719 76.504 143.375 75.112C142.079 73.672 141.071 71.992 140.351 70.072C139.679 68.152 139.343 66.112 139.343 63.952ZM145.535 63.88C145.535 65.272 145.775 66.568 146.255 67.768C146.783 68.968 147.479 70 148.343 70.864C149.207 71.728 150.239 72.424 151.439 72.952C152.639 73.432 153.959 73.672 155.399 73.672C156.839 73.672 158.159 73.432 159.359 72.952C160.607 72.424 161.663 71.728 162.527 70.864C163.439 69.952 164.135 68.92 164.615 67.768C165.095 66.568 165.335 65.272 165.335 63.88C165.335 62.488 165.095 61.216 164.615 60.064C164.135 58.864 163.439 57.832 162.527 56.968C161.663 56.104 160.607 55.432 159.359 54.952C158.159 54.424 156.839 54.16 155.399 54.16C153.959 54.16 152.639 54.424 151.439 54.952C150.239 55.432 149.207 56.104 148.343 56.968C147.479 57.832 146.783 58.864 146.255 60.064C145.775 61.216 145.535 62.488 145.535 63.88ZM205.66 75.472C204.22 76.768 202.468 77.8 200.404 78.568C198.34 79.336 196.228 79.72 194.068 79.72C191.86 79.72 189.772 79.312 187.804 78.496C185.884 77.632 184.204 76.504 182.764 75.112C181.324 73.672 180.172 71.992 179.308 70.072C178.492 68.152 178.084 66.112 178.084 63.952C178.084 61.792 178.492 59.752 179.308 57.832C180.172 55.912 181.324 54.232 182.764 52.792C184.204 51.352 185.86 50.224 187.732 49.408C189.652 48.544 191.692 48.112 193.852 48.112C197.26 48.112 200.212 49.144 202.708 51.208C205.252 53.224 207.076 55.888 208.18 59.2C206.692 59.728 204.988 60.376 203.068 61.144C201.148 61.912 199.156 62.728 197.092 63.592C195.028 64.408 192.964 65.224 190.9 66.04C188.836 66.856 186.916 67.6 185.14 68.272C185.956 69.904 187.132 71.224 188.668 72.232C190.252 73.192 192.004 73.672 193.924 73.672C195.22 73.672 196.516 73.432 197.812 72.952C199.156 72.472 200.236 71.824 201.052 71.008L205.66 75.472ZM200.476 57.76C199.9 56.56 198.988 55.672 197.74 55.096C196.492 54.472 195.22 54.16 193.924 54.16C192.532 54.16 191.236 54.424 190.036 54.952C188.884 55.48 187.876 56.2 187.012 57.112C186.148 57.976 185.452 58.984 184.924 60.136C184.444 61.288 184.204 62.464 184.204 63.664C184.204 63.904 184.204 64.072 184.204 64.168C184.252 64.264 184.276 64.336 184.276 64.384C185.524 63.904 186.868 63.376 188.308 62.8C189.796 62.176 191.26 61.576 192.7 61C194.14 60.376 195.532 59.8 196.876 59.272C198.22 58.696 199.42 58.192 200.476 57.76ZM230.06 56.032C228.716 56.032 227.42 56.224 226.172 56.608C224.924 56.944 223.796 57.472 222.788 58.192C221.828 58.912 221.06 59.824 220.484 60.928C219.908 61.984 219.62 63.208 219.62 64.6V79H213.5V48.904H218.9C218.996 50.392 219.068 51.76 219.116 53.008C219.212 54.208 219.308 55.408 219.404 56.608C220.028 55.312 220.844 54.136 221.852 53.08C222.86 52.024 223.94 51.136 225.092 50.416C226.244 49.696 227.372 49.144 228.476 48.76C229.58 48.328 230.564 48.112 231.428 48.112L230.06 56.032ZM242.051 79H235.931V23.056H242.051V79ZM278.773 79.648H273.589L272.869 71.296C271.765 73.744 270.205 75.76 268.189 77.344C266.221 78.928 263.701 79.72 260.629 79.72C257.557 79.72 255.109 78.904 253.285 77.272C251.509 75.592 250.573 73.408 250.477 70.72V48.904H256.597V67.984C256.693 69.472 257.221 70.744 258.181 71.8C259.189 72.856 260.725 73.456 262.789 73.6C264.229 73.6 265.549 73.36 266.749 72.88C267.949 72.352 268.981 71.656 269.845 70.792C270.709 69.928 271.381 68.896 271.861 67.696C272.341 66.496 272.581 65.176 272.581 63.736V48.904H278.773V79.648ZM304.174 51.568L300.934 55.888C300.886 55.84 300.718 55.72 300.43 55.528C300.142 55.336 299.758 55.144 299.278 54.952C298.846 54.76 298.318 54.592 297.694 54.448C297.118 54.256 296.518 54.16 295.894 54.16C295.078 54.16 294.262 54.352 293.446 54.736C292.678 55.12 292.294 55.84 292.294 56.896C292.294 57.808 292.606 58.552 293.23 59.128C293.902 59.704 294.718 60.232 295.678 60.712C296.638 61.144 297.67 61.6 298.774 62.08C299.926 62.56 300.982 63.16 301.942 63.88C302.902 64.552 303.694 65.416 304.318 66.472C304.99 67.48 305.326 68.776 305.326 70.36C305.326 73.048 304.39 75.28 302.518 77.056C300.694 78.784 298.174 79.648 294.958 79.648C293.086 79.648 291.238 79.336 289.414 78.712C287.638 78.04 286.198 77.08 285.094 75.832C285.43 75.496 285.79 75.064 286.174 74.536C286.606 74.008 287.014 73.504 287.398 73.024C287.83 72.544 288.166 72.16 288.406 71.872C288.694 71.536 288.862 71.368 288.91 71.368C288.91 71.416 289.078 71.56 289.414 71.8C289.798 72.04 290.278 72.304 290.854 72.592C291.43 72.832 292.078 73.072 292.798 73.312C293.518 73.504 294.238 73.6 294.958 73.6C296.11 73.6 297.094 73.312 297.91 72.736C298.726 72.16 299.134 71.392 299.134 70.432C299.134 69.568 298.798 68.896 298.126 68.416C297.502 67.888 296.71 67.408 295.75 66.976C294.79 66.544 293.734 66.112 292.582 65.68C291.43 65.2 290.374 64.6 289.414 63.88C288.454 63.16 287.638 62.272 286.966 61.216C286.342 60.112 286.03 58.696 286.03 56.968C286.03 55.336 286.318 53.968 286.894 52.864C287.518 51.76 288.286 50.872 289.198 50.2C290.158 49.48 291.214 48.976 292.366 48.688C293.518 48.352 294.622 48.184 295.678 48.184C297.07 48.184 298.558 48.472 300.142 49.048C301.726 49.624 303.07 50.464 304.174 51.568ZM314.459 35.656H320.579V48.976H328.643V54.448H320.579V79H314.459V54.448H309.059V48.976H314.459V35.656Z" fill="black"/>
<path d="M346.768 52.7678C347.744 51.7915 347.744 50.2085 346.768 49.2322L330.858 33.3223C329.882 32.346 328.299 32.346 327.322 33.3223C326.346 34.2986 326.346 35.8816 327.322 36.8579L341.464 51L327.322 65.1421C326.346 66.1184 326.346 67.7014 327.322 68.6777C328.299 69.654 329.882 69.654 330.858 68.6777L346.768 52.7678ZM343 53.5H345V48.5H343V53.5Z" fill="black"/>
</svg>
